solid a
facet normal 0.0 1.0 0.0
   outer loop
      vertex -29.999999999999996 30.0 4.999999999999999
      vertex 30.000000000000014 30.0 0.0
      vertex -29.999999999999996 30.0 0.0
   endloop
endfacet
facet normal 0.0 1.0 0.0
   outer loop
      vertex 30.000000000000014 30.0 0.0
      vertex -29.999999999999996 30.0 4.999999999999999
      vertex 30.000000000000014 30.0 4.999999999999999
   endloop
endfacet
facet normal 0.0 0.0 -1.0
   outer loop
      vertex -29.999999999999996 30.0 0.0
      vertex -25.999999999999996 26.000000000000007 0.0
      vertex -26.000000000000004 -26.000000000000004 0.0
   endloop
endfacet
facet normal 0.0 0.0 -1.0
   outer loop
      vertex -25.999999999999996 26.000000000000007 0.0
      vertex -29.999999999999996 30.0 0.0
      vertex 30.000000000000014 30.0 0.0
   endloop
endfacet
facet normal 0.0 0.0 -1.0
   outer loop
      vertex -25.999999999999996 26.000000000000007 0.0
      vertex 30.000000000000014 30.0 0.0
      vertex 26.000000000000007 26.000000000000007 0.0
   endloop
endfacet
facet normal 0.0 0.0 -1.0
   outer loop
      vertex 26.000000000000007 26.000000000000007 0.0
      vertex 30.000000000000014 30.0 0.0
      vertex 26.000000000000007 -26.000000000000004 0.0
   endloop
endfacet
facet normal 0.0 0.0 -1.0
   outer loop
      vertex -30.0 -30.0 0.0
      vertex -26.000000000000004 -26.000000000000004 0.0
      vertex 30.000000000000014 -30.0 0.0
   endloop
endfacet
facet normal 0.0 0.0 -1.0
   outer loop
      vertex -26.000000000000004 -26.000000000000004 0.0
      vertex -30.0 -30.0 0.0
      vertex -29.999999999999996 30.0 0.0
   endloop
endfacet
facet normal 0.0 0.0 -1.0
   outer loop
      vertex 30.000000000000014 -30.0 0.0
      vertex -26.000000000000004 -26.000000000000004 0.0
      vertex 26.000000000000007 -26.000000000000004 0.0
   endloop
endfacet
facet normal 0.0 0.0 -1.0
   outer loop
      vertex 30.000000000000014 -30.0 0.0
      vertex 26.000000000000007 -26.000000000000004 0.0
      vertex 30.000000000000014 30.0 0.0
   endloop
endfacet
facet normal 1.0 0.0 0.0
   outer loop
      vertex 30.000000000000014 30.0 0.0
      vertex 30.000000000000014 -30.0 4.999999999999999
      vertex 30.000000000000014 -30.0 0.0
   endloop
endfacet
facet normal 1.0 0.0 0.0
   outer loop
      vertex 30.000000000000014 -30.0 4.999999999999999
      vertex 30.000000000000014 30.0 0.0
      vertex 30.000000000000014 30.0 4.999999999999999
   endloop
endfacet
facet normal -1.0 0.0 0.0
   outer loop
      vertex -25.5 25.50000000000001 25.0
      vertex -25.5 -25.500000000000004 4.999999999999991
      vertex -25.5 -25.50000000000001 24.99999999999999
   endloop
endfacet
facet normal -1.0 0.0 0.0
   outer loop
      vertex -25.5 -25.500000000000004 4.999999999999991
      vertex -25.5 25.50000000000001 25.0
      vertex -25.5 25.50000000000001 4.999999999999999
   endloop
endfacet
facet normal 1.0 0.0 0.0
   outer loop
      vertex -21.5 -21.500000000000007 4.999999999999991
      vertex -21.5 21.500000000000018 25.0
      vertex -21.5 -21.50000000000001 24.99999999999999
   endloop
endfacet
facet normal 1.0 0.0 0.0
   outer loop
      vertex -21.5 21.500000000000018 25.0
      vertex -21.5 -21.500000000000007 4.999999999999991
      vertex -21.5 21.500000000000018 4.999999999999999
   endloop
endfacet
facet normal -1.0513033728873976e-18 -2.1160192889457838e-16 1.0
   outer loop
      vertex -21.5 -21.500000000000007 4.999999999999991
      vertex -14.488887394336018 -3.8822856765378133 4.9999999999999964
      vertex -21.5 21.500000000000018 4.999999999999999
   endloop
endfacet
facet normal -1.0513033728873976e-18 -2.1160192889457838e-16 1.0
   outer loop
      vertex -14.488887394336018 -3.8822856765378133 4.9999999999999964
      vertex -21.5 -21.500000000000007 4.999999999999991
      vertex -12.990381056766573 -7.5000000000000036 4.999999999999994
   endloop
endfacet
facet normal -1.0513033728873976e-18 -2.1160192889457838e-16 1.0
   outer loop
      vertex -12.990381056766573 -7.5000000000000036 4.999999999999994
      vertex -21.5 -21.500000000000007 4.999999999999991
      vertex -10.606601717798206 -10.606601717798211 4.999999999999994
   endloop
endfacet
facet normal -1.0513033728873976e-18 -2.1160192889457838e-16 1.0
   outer loop
      vertex -10.606601717798206 -10.606601717798211 4.999999999999994
      vertex -21.5 -21.500000000000007 4.999999999999991
      vertex -7.499999999999992 -12.990381056766578 4.999999999999994
   endloop
endfacet
facet normal -1.0513033728873976e-18 -2.1160192889457838e-16 1.0
   outer loop
      vertex -7.499999999999992 -12.990381056766578 4.999999999999994
      vertex -21.5 -21.500000000000007 4.999999999999991
      vertex -3.882285676537802 -14.488887394336022 4.999999999999994
   endloop
endfacet
facet normal -1.0513033728873976e-18 -2.1160192889457838e-16 1.0
   outer loop
      vertex -3.882285676537802 -14.488887394336022 4.999999999999994
      vertex -21.5 -21.500000000000007 4.999999999999991
      vertex 21.500000000000018 -21.500000000000007 4.999999999999991
   endloop
endfacet
facet normal -1.0513033728873976e-18 -2.1160192889457838e-16 1.0
   outer loop
      vertex -21.5 21.500000000000018 4.999999999999999
      vertex -14.488887394336018 -3.8822856765378133 4.9999999999999964
      vertex -14.999999999999995 0.0 4.9999999999999964
   endloop
endfacet
facet normal -1.0513033728873976e-18 -2.1160192889457838e-16 1.0
   outer loop
      vertex -3.882285676537802 -14.488887394336022 4.999999999999994
      vertex 21.500000000000018 -21.500000000000007 4.999999999999991
      vertex 5.639932965095795e-15 -14.999999999999998 4.999999999999994
   endloop
endfacet
facet normal -1.0513033728873976e-18 -2.1160192889457838e-16 1.0
   outer loop
      vertex 5.639932965095795e-15 -14.999999999999998 4.999999999999994
      vertex 21.500000000000018 -21.500000000000007 4.999999999999991
      vertex 3.882285676537819 -14.488887394336022 4.999999999999994
   endloop
endfacet
facet normal -1.0513033728873976e-18 -2.1160192889457838e-16 1.0
   outer loop
      vertex 3.882285676537819 -14.488887394336022 4.999999999999994
      vertex 21.500000000000018 -21.500000000000007 4.999999999999991
      vertex 7.500000000000009 -12.990381056766577 4.999999999999994
   endloop
endfacet
facet normal -1.0513033728873976e-18 -2.1160192889457838e-16 1.0
   outer loop
      vertex 7.500000000000009 -12.990381056766577 4.999999999999994
      vertex 21.500000000000018 -21.500000000000007 4.999999999999991
      vertex 10.606601717798217 -10.606601717798211 4.999999999999994
   endloop
endfacet
facet normal -1.0513033728873976e-18 -2.1160192889457838e-16 1.0
   outer loop
      vertex 10.606601717798217 -10.606601717798211 4.999999999999994
      vertex 21.500000000000018 -21.500000000000007 4.999999999999991
      vertex 12.990381056766587 -7.499999999999997 4.999999999999994
   endloop
endfacet
facet normal -1.0513033728873976e-18 -2.1160192889457838e-16 1.0
   outer loop
      vertex 12.990381056766587 -7.499999999999997 4.999999999999994
      vertex 21.500000000000018 -21.500000000000007 4.999999999999991
      vertex 14.48888739433603 -3.8822856765378075 4.9999999999999964
   endloop
endfacet
facet normal -1.0513033728873976e-18 -2.1160192889457838e-16 1.0
   outer loop
      vertex 14.48888739433603 -3.8822856765378075 4.9999999999999964
      vertex 21.500000000000018 -21.500000000000007 4.999999999999991
      vertex 15.000000000000007 0.0 4.9999999999999964
   endloop
endfacet
facet normal -1.0513033728873976e-18 -2.1160192889457838e-16 1.0
   outer loop
      vertex -21.5 21.500000000000018 4.999999999999999
      vertex -3.882285676537819 14.488887394336025 4.999999999999999
      vertex 21.500000000000018 21.500000000000018 4.999999999999999
   endloop
endfacet
facet normal -1.0513033728873976e-18 -2.1160192889457838e-16 1.0
   outer loop
      vertex -3.882285676537819 14.488887394336025 4.999999999999999
      vertex -21.5 21.500000000000018 4.999999999999999
      vertex -7.5000000000000036 12.990381056766582 4.999999999999999
   endloop
endfacet
facet normal -1.0513033728873976e-18 -2.1160192889457838e-16 1.0
   outer loop
      vertex -7.5000000000000036 12.990381056766582 4.999999999999999
      vertex -21.5 21.500000000000018 4.999999999999999
      vertex -10.606601717798213 10.606601717798211 4.999999999999999
   endloop
endfacet
facet normal -1.0513033728873976e-18 -2.1160192889457838e-16 1.0
   outer loop
      vertex -10.606601717798213 10.606601717798211 4.999999999999999
      vertex -21.5 21.500000000000018 4.999999999999999
      vertex -12.990381056766577 7.499999999999997 4.999999999999999
   endloop
endfacet
facet normal -1.0513033728873976e-18 -2.1160192889457838e-16 1.0
   outer loop
      vertex -12.990381056766577 7.499999999999997 4.999999999999999
      vertex -21.5 21.500000000000018 4.999999999999999
      vertex -14.488887394336022 3.8822856765378075 4.9999999999999964
   endloop
endfacet
facet normal -1.0513033728873976e-18 -2.1160192889457838e-16 1.0
   outer loop
      vertex -14.488887394336022 3.8822856765378075 4.9999999999999964
      vertex -21.5 21.500000000000018 4.999999999999999
      vertex -14.999999999999995 0.0 4.9999999999999964
   endloop
endfacet
facet normal -1.0513033728873976e-18 -2.1160192889457838e-16 1.0
   outer loop
      vertex 21.500000000000018 21.500000000000018 4.999999999999999
      vertex -3.882285676537819 14.488887394336025 4.999999999999999
      vertex 5.639932965095795e-15 15.000000000000007 4.999999999999999
   endloop
endfacet
facet normal -1.0513033728873976e-18 -2.1160192889457838e-16 1.0
   outer loop
      vertex 21.500000000000018 21.500000000000018 4.999999999999999
      vertex 5.639932965095795e-15 15.000000000000007 4.999999999999999
      vertex 3.8822856765378075 14.48888739433603 4.999999999999999
   endloop
endfacet
facet normal -1.0513033728873976e-18 -2.1160192889457838e-16 1.0
   outer loop
      vertex 21.500000000000018 21.500000000000018 4.999999999999999
      vertex 3.8822856765378075 14.48888739433603 4.999999999999999
      vertex 7.499999999999997 12.990381056766592 4.999999999999999
   endloop
endfacet
facet normal -1.0513033728873976e-18 -2.1160192889457838e-16 1.0
   outer loop
      vertex 21.500000000000018 21.500000000000018 4.999999999999999
      vertex 7.499999999999997 12.990381056766592 4.999999999999999
      vertex 10.606601717798217 10.606601717798217 4.999999999999999
   endloop
endfacet
facet normal -1.0513033728873976e-18 -2.1160192889457838e-16 1.0
   outer loop
      vertex 21.500000000000018 21.500000000000018 4.999999999999999
      vertex 10.606601717798217 10.606601717798217 4.999999999999999
      vertex 12.990381056766582 7.500000000000009 4.999999999999999
   endloop
endfacet
facet normal -1.0513033728873976e-18 -2.1160192889457838e-16 1.0
   outer loop
      vertex 21.500000000000018 21.500000000000018 4.999999999999999
      vertex 12.990381056766582 7.500000000000009 4.999999999999999
      vertex 14.488887394336025 3.8822856765378244 4.9999999999999964
   endloop
endfacet
facet normal -1.0513033728873976e-18 -2.1160192889457838e-16 1.0
   outer loop
      vertex 21.500000000000018 21.500000000000018 4.999999999999999
      vertex 14.488887394336025 3.8822856765378244 4.9999999999999964
      vertex 15.000000000000007 0.0 4.9999999999999964
   endloop
endfacet
facet normal -1.0513033728873976e-18 -2.1160192889457838e-16 1.0
   outer loop
      vertex 21.500000000000018 21.500000000000018 4.999999999999999
      vertex 15.000000000000007 0.0 4.9999999999999964
      vertex 21.500000000000018 -21.500000000000007 4.999999999999991
   endloop
endfacet
facet normal 0.0 0.0 1.0
   outer loop
      vertex -30.0 -30.0 4.999999999999999
      vertex -25.5 -25.500000000000004 4.999999999999991
      vertex -29.999999999999996 30.0 4.999999999999999
   endloop
endfacet
facet normal 0.0 0.0 1.0
   outer loop
      vertex -25.5 -25.500000000000004 4.999999999999991
      vertex -30.0 -30.0 4.999999999999999
      vertex 30.000000000000014 -30.0 4.999999999999999
   endloop
endfacet
facet normal 0.0 0.0 1.0
   outer loop
      vertex -25.5 -25.500000000000004 4.999999999999991
      vertex 30.000000000000014 -30.0 4.999999999999999
      vertex 25.50000000000001 -25.500000000000004 4.999999999999991
   endloop
endfacet
facet normal 0.0 0.0 1.0
   outer loop
      vertex 25.50000000000001 -25.500000000000004 4.999999999999991
      vertex 30.000000000000014 -30.0 4.999999999999999
      vertex 25.50000000000001 25.50000000000001 4.999999999999999
   endloop
endfacet
facet normal 0.0 0.0 1.0
   outer loop
      vertex -29.999999999999996 30.0 4.999999999999999
      vertex -25.5 25.50000000000001 4.999999999999999
      vertex 30.000000000000014 30.0 4.999999999999999
   endloop
endfacet
facet normal 0.0 0.0 1.0
   outer loop
      vertex -25.5 25.50000000000001 4.999999999999999
      vertex -29.999999999999996 30.0 4.999999999999999
      vertex -25.5 -25.500000000000004 4.999999999999991
   endloop
endfacet
facet normal 0.0 0.0 1.0
   outer loop
      vertex 30.000000000000014 30.0 4.999999999999999
      vertex -25.5 25.50000000000001 4.999999999999999
      vertex 25.50000000000001 25.50000000000001 4.999999999999999
   endloop
endfacet
facet normal 0.0 0.0 1.0
   outer loop
      vertex 30.000000000000014 30.0 4.999999999999999
      vertex 25.50000000000001 25.50000000000001 4.999999999999999
      vertex 30.000000000000014 -30.0 4.999999999999999
   endloop
endfacet
facet normal 0.0 1.0 1.6395153968301718e-16
   outer loop
      vertex -21.5 -21.50000000000001 24.99999999999999
      vertex 21.500000000000018 -21.500000000000007 4.999999999999991
      vertex -21.5 -21.500000000000007 4.999999999999991
   endloop
endfacet
facet normal 0.0 1.0 1.6395153968301718e-16
   outer loop
      vertex 21.500000000000018 -21.500000000000007 4.999999999999991
      vertex -21.5 -21.50000000000001 24.99999999999999
      vertex 21.500000000000018 -21.50000000000001 24.99999999999999
   endloop
endfacet
facet normal -1.0 0.0 0.0
   outer loop
      vertex 21.500000000000018 21.500000000000018 25.0
      vertex 21.500000000000018 -21.500000000000007 4.999999999999991
      vertex 21.500000000000018 -21.50000000000001 24.99999999999999
   endloop
endfacet
facet normal -1.0 0.0 0.0
   outer loop
      vertex 21.500000000000018 -21.500000000000007 4.999999999999991
      vertex 21.500000000000018 21.500000000000018 25.0
      vertex 21.500000000000018 21.500000000000018 4.999999999999999
   endloop
endfacet
facet normal -0.0 -1.0 -1.6395153968301718e-16
   outer loop
      vertex 21.500000000000018 21.500000000000018 25.0
      vertex -21.5 21.500000000000018 4.999999999999999
      vertex 21.500000000000018 21.500000000000018 4.999999999999999
   endloop
endfacet
facet normal -0.0 -1.0 -1.6395153968301718e-16
   outer loop
      vertex -21.5 21.500000000000018 4.999999999999999
      vertex 21.500000000000018 21.500000000000018 25.0
      vertex -21.5 21.500000000000018 25.0
   endloop
endfacet
facet normal 3.682815318295224e-32 -2.2177833270102166e-16 1.0
   outer loop
      vertex -14.488887394336018 -3.8822856765378133 9.999999999999996
      vertex -14.488887394336022 3.8822856765378075 9.999999999999996
      vertex -14.999999999999995 0.0 9.999999999999996
   endloop
endfacet
facet normal 3.682815318295224e-32 -2.2177833270102166e-16 1.0
   outer loop
      vertex -14.488887394336022 3.8822856765378075 9.999999999999996
      vertex -14.488887394336018 -3.8822856765378133 9.999999999999996
      vertex -12.990381056766577 7.499999999999997 10.000000000000002
   endloop
endfacet
facet normal 3.682815318295224e-32 -2.2177833270102166e-16 1.0
   outer loop
      vertex -12.990381056766577 7.499999999999997 10.000000000000002
      vertex -14.488887394336018 -3.8822856765378133 9.999999999999996
      vertex -12.990381056766573 -7.5000000000000036 9.999999999999996
   endloop
endfacet
facet normal 3.682815318295224e-32 -2.2177833270102166e-16 1.0
   outer loop
      vertex -12.990381056766577 7.499999999999997 10.000000000000002
      vertex -12.990381056766573 -7.5000000000000036 9.999999999999996
      vertex -10.606601717798213 10.606601717798206 10.000000000000002
   endloop
endfacet
facet normal 3.682815318295224e-32 -2.2177833270102166e-16 1.0
   outer loop
      vertex -10.606601717798213 10.606601717798206 10.000000000000002
      vertex -12.990381056766573 -7.5000000000000036 9.999999999999996
      vertex -10.606601717798206 -10.606601717798211 9.999999999999996
   endloop
endfacet
facet normal 3.682815318295224e-32 -2.2177833270102166e-16 1.0
   outer loop
      vertex -10.606601717798213 10.606601717798206 10.000000000000002
      vertex -10.606601717798206 -10.606601717798211 9.999999999999996
      vertex -7.5000000000000036 12.990381056766577 10.000000000000002
   endloop
endfacet
facet normal 3.682815318295224e-32 -2.2177833270102166e-16 1.0
   outer loop
      vertex -7.5000000000000036 12.990381056766577 10.000000000000002
      vertex -10.606601717798206 -10.606601717798211 9.999999999999996
      vertex -7.499999999999992 -12.990381056766582 9.999999999999996
   endloop
endfacet
facet normal 3.682815318295224e-32 -2.2177833270102166e-16 1.0
   outer loop
      vertex -7.5000000000000036 12.990381056766577 10.000000000000002
      vertex -7.499999999999992 -12.990381056766582 9.999999999999996
      vertex -3.882285676537819 14.488887394336025 10.000000000000002
   endloop
endfacet
facet normal 3.682815318295224e-32 -2.2177833270102166e-16 1.0
   outer loop
      vertex -3.882285676537819 14.488887394336025 10.000000000000002
      vertex -7.499999999999992 -12.990381056766582 9.999999999999996
      vertex -3.882285676537802 -14.488887394336025 9.999999999999996
   endloop
endfacet
facet normal 3.682815318295224e-32 -2.2177833270102166e-16 1.0
   outer loop
      vertex -3.882285676537819 14.488887394336025 10.000000000000002
      vertex -3.882285676537802 -14.488887394336025 9.999999999999996
      vertex 5.639932965095795e-15 15.0 10.000000000000002
   endloop
endfacet
facet normal 3.682815318295224e-32 -2.2177833270102166e-16 1.0
   outer loop
      vertex 5.639932965095795e-15 15.0 10.000000000000002
      vertex -3.882285676537802 -14.488887394336025 9.999999999999996
      vertex 5.639932965095795e-15 -15.0 9.999999999999996
   endloop
endfacet
facet normal 3.682815318295224e-32 -2.2177833270102166e-16 1.0
   outer loop
      vertex 5.639932965095795e-15 15.0 10.000000000000002
      vertex 5.639932965095795e-15 -15.0 9.999999999999996
      vertex 3.882285676537819 -14.488887394336025 9.999999999999996
   endloop
endfacet
facet normal 3.682815318295224e-32 -2.2177833270102166e-16 1.0
   outer loop
      vertex 5.639932965095795e-15 15.0 10.000000000000002
      vertex 3.882285676537819 -14.488887394336025 9.999999999999996
      vertex 3.8822856765378075 14.488887394336025 10.000000000000002
   endloop
endfacet
facet normal 3.682815318295224e-32 -2.2177833270102166e-16 1.0
   outer loop
      vertex 3.8822856765378075 14.488887394336025 10.000000000000002
      vertex 3.882285676537819 -14.488887394336025 9.999999999999996
      vertex 7.499999999999997 12.990381056766587 10.000000000000002
   endloop
endfacet
facet normal 3.682815318295224e-32 -2.2177833270102166e-16 1.0
   outer loop
      vertex 7.499999999999997 12.990381056766587 10.000000000000002
      vertex 3.882285676537819 -14.488887394336025 9.999999999999996
      vertex 7.500000000000009 -12.990381056766578 9.999999999999996
   endloop
endfacet
facet normal 3.682815318295224e-32 -2.2177833270102166e-16 1.0
   outer loop
      vertex 7.499999999999997 12.990381056766587 10.000000000000002
      vertex 7.500000000000009 -12.990381056766578 9.999999999999996
      vertex 10.606601717798217 10.606601717798217 10.000000000000002
   endloop
endfacet
facet normal 3.682815318295224e-32 -2.2177833270102166e-16 1.0
   outer loop
      vertex 10.606601717798217 10.606601717798217 10.000000000000002
      vertex 7.500000000000009 -12.990381056766578 9.999999999999996
      vertex 10.606601717798217 -10.606601717798211 9.999999999999996
   endloop
endfacet
facet normal 3.682815318295224e-32 -2.2177833270102166e-16 1.0
   outer loop
      vertex 10.606601717798217 10.606601717798217 10.000000000000002
      vertex 10.606601717798217 -10.606601717798211 9.999999999999996
      vertex 12.990381056766587 -7.499999999999997 9.999999999999996
   endloop
endfacet
facet normal 3.682815318295224e-32 -2.2177833270102166e-16 1.0
   outer loop
      vertex 10.606601717798217 10.606601717798217 10.000000000000002
      vertex 12.990381056766587 -7.499999999999997 9.999999999999996
      vertex 12.990381056766582 7.500000000000009 10.000000000000002
   endloop
endfacet
facet normal 3.682815318295224e-32 -2.2177833270102166e-16 1.0
   outer loop
      vertex 12.990381056766582 7.500000000000009 10.000000000000002
      vertex 12.990381056766587 -7.499999999999997 9.999999999999996
      vertex 14.488887394336025 3.8822856765378244 9.999999999999996
   endloop
endfacet
facet normal 3.682815318295224e-32 -2.2177833270102166e-16 1.0
   outer loop
      vertex 14.488887394336025 3.8822856765378244 9.999999999999996
      vertex 12.990381056766587 -7.499999999999997 9.999999999999996
      vertex 14.48888739433603 -3.8822856765378075 9.999999999999996
   endloop
endfacet
facet normal 3.682815318295224e-32 -2.2177833270102166e-16 1.0
   outer loop
      vertex 14.488887394336025 3.8822856765378244 9.999999999999996
      vertex 14.48888739433603 -3.8822856765378075 9.999999999999996
      vertex 15.000000000000007 0.0 9.999999999999996
   endloop
endfacet
facet normal -0.0 -1.0 -0.0
   outer loop
      vertex 30.000000000000014 -30.0 4.999999999999999
      vertex -30.0 -30.0 0.0
      vertex 30.000000000000014 -30.0 0.0
   endloop
endfacet
facet normal -0.0 -1.0 -0.0
   outer loop
      vertex -30.0 -30.0 0.0
      vertex 30.000000000000014 -30.0 4.999999999999999
      vertex -30.0 -30.0 4.999999999999999
   endloop
endfacet
facet normal 1.0 0.0 0.0
   outer loop
      vertex 25.50000000000001 -25.500000000000004 4.999999999999991
      vertex 25.50000000000001 25.50000000000001 25.0
      vertex 25.50000000000001 -25.50000000000001 24.99999999999999
   endloop
endfacet
facet normal 1.0 0.0 0.0
   outer loop
      vertex 25.50000000000001 25.50000000000001 25.0
      vertex 25.50000000000001 -25.500000000000004 4.999999999999991
      vertex 25.50000000000001 25.50000000000001 4.999999999999999
   endloop
endfacet
facet normal 0.0 -1.0 -1.6588038132634687e-16
   outer loop
      vertex 25.50000000000001 -25.50000000000001 24.99999999999999
      vertex -25.5 -25.500000000000004 4.999999999999991
      vertex 25.50000000000001 -25.500000000000004 4.999999999999991
   endloop
endfacet
facet normal 0.0 -1.0 -1.6588038132634687e-16
   outer loop
      vertex -25.5 -25.500000000000004 4.999999999999991
      vertex 25.50000000000001 -25.50000000000001 24.99999999999999
      vertex -25.5 -25.50000000000001 24.99999999999999
   endloop
endfacet
facet normal 0.0 1.0 1.6588038132634687e-16
   outer loop
      vertex -25.5 25.50000000000001 25.0
      vertex 25.50000000000001 25.50000000000001 4.999999999999999
      vertex -25.5 25.50000000000001 4.999999999999999
   endloop
endfacet
facet normal 0.0 1.0 1.6588038132634687e-16
   outer loop
      vertex 25.50000000000001 25.50000000000001 4.999999999999999
      vertex -25.5 25.50000000000001 25.0
      vertex 25.50000000000001 25.50000000000001 25.0
   endloop
endfacet
facet normal -1.0 9.399888275159658e-17 0.0
   outer loop
      vertex -29.999999999999996 30.0 4.999999999999999
      vertex -30.0 -30.0 0.0
      vertex -30.0 -30.0 4.999999999999999
   endloop
endfacet
facet normal -1.0 9.399888275159658e-17 0.0
   outer loop
      vertex -30.0 -30.0 0.0
      vertex -29.999999999999996 30.0 4.999999999999999
      vertex -29.999999999999996 30.0 0.0
   endloop
endfacet
facet normal 0.0 -1.6588038132634685e-16 1.0
   outer loop
      vertex -25.5 -25.50000000000001 24.99999999999999
      vertex -21.5 -21.50000000000001 24.99999999999999
      vertex -25.5 25.50000000000001 25.0
   endloop
endfacet
facet normal 0.0 -1.6588038132634685e-16 1.0
   outer loop
      vertex -21.5 -21.50000000000001 24.99999999999999
      vertex -25.5 -25.50000000000001 24.99999999999999
      vertex 25.50000000000001 -25.50000000000001 24.99999999999999
   endloop
endfacet
facet normal 0.0 -1.6588038132634685e-16 1.0
   outer loop
      vertex -21.5 -21.50000000000001 24.99999999999999
      vertex 25.50000000000001 -25.50000000000001 24.99999999999999
      vertex 21.500000000000018 -21.50000000000001 24.99999999999999
   endloop
endfacet
facet normal 0.0 -1.6588038132634685e-16 1.0
   outer loop
      vertex 21.500000000000018 -21.50000000000001 24.99999999999999
      vertex 25.50000000000001 -25.50000000000001 24.99999999999999
      vertex 21.500000000000018 21.500000000000018 25.0
   endloop
endfacet
facet normal 0.0 -1.6588038132634685e-16 1.0
   outer loop
      vertex -25.5 25.50000000000001 25.0
      vertex -21.5 21.500000000000018 25.0
      vertex 25.50000000000001 25.50000000000001 25.0
   endloop
endfacet
facet normal 0.0 -1.6588038132634685e-16 1.0
   outer loop
      vertex -21.5 21.500000000000018 25.0
      vertex -25.5 25.50000000000001 25.0
      vertex -21.5 -21.50000000000001 24.99999999999999
   endloop
endfacet
facet normal 0.0 -1.6588038132634685e-16 1.0
   outer loop
      vertex 25.50000000000001 25.50000000000001 25.0
      vertex -21.5 21.500000000000018 25.0
      vertex 21.500000000000018 21.500000000000018 25.0
   endloop
endfacet
facet normal 0.0 -1.6588038132634685e-16 1.0
   outer loop
      vertex 25.50000000000001 25.50000000000001 25.0
      vertex 21.500000000000018 21.500000000000018 25.0
      vertex 25.50000000000001 -25.50000000000001 24.99999999999999
   endloop
endfacet
facet normal 0.9659258262890682 0.25881904510252124 5.740045629410766e-17
   outer loop
      vertex 14.488887394336025 3.8822856765378244 4.9999999999999964
      vertex 15.000000000000007 0.0 9.999999999999996
      vertex 15.000000000000007 0.0 4.9999999999999964
   endloop
endfacet
facet normal 0.9659258262890682 0.25881904510252124 5.740045629410766e-17
   outer loop
      vertex 15.000000000000007 0.0 9.999999999999996
      vertex 14.488887394336025 3.8822856765378244 4.9999999999999964
      vertex 14.488887394336025 3.8822856765378244 9.999999999999996
   endloop
endfacet
facet normal 0.8660254037844384 0.5000000000000004 1.1088916635051093e-16
   outer loop
      vertex 12.990381056766582 7.500000000000009 4.999999999999999
      vertex 14.488887394336025 3.8822856765378244 9.999999999999996
      vertex 14.488887394336025 3.8822856765378244 4.9999999999999964
   endloop
endfacet
facet normal 0.8660254037844384 0.5000000000000004 1.1088916635051093e-16
   outer loop
      vertex 14.488887394336025 3.8822856765378244 9.999999999999996
      vertex 12.990381056766582 7.500000000000009 4.999999999999999
      vertex 12.990381056766582 7.500000000000009 10.000000000000002
   endloop
endfacet
facet normal -0.8660254037844384 -0.5000000000000003 -1.1088916635051088e-16
   outer loop
      vertex -12.990381056766573 -7.5000000000000036 9.999999999999996
      vertex -10.606601717798206 -10.606601717798211 4.999999999999994
      vertex -10.606601717798206 -10.606601717798211 9.999999999999996
   endloop
endfacet
facet normal -0.8660254037844384 -0.5000000000000003 -1.1088916635051088e-16
   outer loop
      vertex -10.606601717798206 -10.606601717798211 4.999999999999994
      vertex -12.990381056766573 -7.5000000000000036 9.999999999999996
      vertex -12.990381056766573 -7.5000000000000036 4.999999999999994
   endloop
endfacet
facet normal 0.8660254037844388 -0.4999999999999999 -1.1088916635051082e-16
   outer loop
      vertex 12.990381056766587 -7.499999999999997 4.999999999999994
      vertex 10.606601717798217 -10.606601717798211 9.999999999999996
      vertex 10.606601717798217 -10.606601717798211 4.999999999999994
   endloop
endfacet
facet normal 0.8660254037844388 -0.4999999999999999 -1.1088916635051082e-16
   outer loop
      vertex 10.606601717798217 -10.606601717798211 9.999999999999996
      vertex 12.990381056766587 -7.499999999999997 4.999999999999994
      vertex 12.990381056766587 -7.499999999999997 9.999999999999996
   endloop
endfacet
facet normal 0.4999999999999996 0.8660254037844389 1.920656701280419e-16
   outer loop
      vertex 7.499999999999997 12.990381056766587 10.000000000000002
      vertex 10.606601717798217 10.606601717798217 4.999999999999999
      vertex 7.499999999999997 12.990381056766592 4.999999999999999
   endloop
endfacet
facet normal 0.4999999999999996 0.8660254037844389 1.920656701280419e-16
   outer loop
      vertex 10.606601717798217 10.606601717798217 4.999999999999999
      vertex 7.499999999999997 12.990381056766587 10.000000000000002
      vertex 10.606601717798217 10.606601717798217 10.000000000000002
   endloop
endfacet
facet normal 0.7071067811865472 0.7071067811865478 1.5682096297313868e-16
   outer loop
      vertex 10.606601717798217 10.606601717798217 4.999999999999999
      vertex 12.990381056766582 7.500000000000009 10.000000000000002
      vertex 12.990381056766582 7.500000000000009 4.999999999999999
   endloop
endfacet
facet normal 0.7071067811865472 0.7071067811865478 1.5682096297313868e-16
   outer loop
      vertex 12.990381056766582 7.500000000000009 10.000000000000002
      vertex 10.606601717798217 10.606601717798217 4.999999999999999
      vertex 10.606601717798217 10.606601717798217 10.000000000000002
   endloop
endfacet
facet normal 0.25881904510252024 0.9659258262890685 2.1422141926724633e-16
   outer loop
      vertex 3.8822856765378075 14.488887394336025 10.000000000000002
      vertex 7.499999999999997 12.990381056766592 4.999999999999999
      vertex 3.8822856765378075 14.48888739433603 4.999999999999999
   endloop
endfacet
facet normal 0.25881904510252024 0.9659258262890685 2.1422141926724633e-16
   outer loop
      vertex 7.499999999999997 12.990381056766592 4.999999999999999
      vertex 3.8822856765378075 14.488887394336025 10.000000000000002
      vertex 7.499999999999997 12.990381056766587 10.000000000000002
   endloop
endfacet
facet normal -0.9659258262890682 0.2588190451025206 5.740045629410757e-17
   outer loop
      vertex -14.488887394336022 3.8822856765378075 9.999999999999996
      vertex -14.999999999999995 0.0 4.9999999999999964
      vertex -14.999999999999995 0.0 9.999999999999996
   endloop
endfacet
facet normal -0.9659258262890682 0.2588190451025206 5.740045629410757e-17
   outer loop
      vertex -14.999999999999995 0.0 4.9999999999999964
      vertex -14.488887394336022 3.8822856765378075 9.999999999999996
      vertex -14.488887394336022 3.8822856765378075 4.9999999999999964
   endloop
endfacet
facet normal -1.0 -2.673332968694071e-16 -2.1765302638446992e-32
   outer loop
      vertex -14.999999999999995 0.0 9.999999999999996
      vertex -14.488887394336018 -3.8822856765378133 4.9999999999999964
      vertex -14.488887394336018 -3.8822856765378133 9.999999999999996
   endloop
endfacet
facet normal -1.0 -2.673332968694071e-16 -2.1765302638446992e-32
   outer loop
      vertex -14.488887394336018 -3.8822856765378133 4.9999999999999964
      vertex -14.999999999999995 0.0 9.999999999999996
      vertex -14.999999999999995 0.0 4.9999999999999964
   endloop
endfacet
facet normal 0.5 -0.8660254037844387 -1.920656701280419e-16
   outer loop
      vertex 7.500000000000009 -12.990381056766578 9.999999999999996
      vertex 3.882285676537819 -14.488887394336022 4.999999999999994
      vertex 7.500000000000009 -12.990381056766577 4.999999999999994
   endloop
endfacet
facet normal 0.5 -0.8660254037844387 -1.920656701280419e-16
   outer loop
      vertex 3.882285676537819 -14.488887394336022 4.999999999999994
      vertex 7.500000000000009 -12.990381056766578 9.999999999999996
      vertex 3.882285676537819 -14.488887394336025 9.999999999999996
   endloop
endfacet
facet normal -6.237776926952835e-17 -1.0 -2.2177833270102168e-16
   outer loop
      vertex 5.639932965095795e-15 -15.0 9.999999999999996
      vertex -3.882285676537802 -14.488887394336022 4.999999999999994
      vertex 5.639932965095795e-15 -14.999999999999998 4.999999999999994
   endloop
endfacet
facet normal -6.237776926952835e-17 -1.0 -2.2177833270102168e-16
   outer loop
      vertex -3.882285676537802 -14.488887394336022 4.999999999999994
      vertex 5.639932965095795e-15 -15.0 9.999999999999996
      vertex -3.882285676537802 -14.488887394336025 9.999999999999996
   endloop
endfacet
facet normal -5.079332640518736e-16 1.0 2.217783327010217e-16
   outer loop
      vertex 5.639932965095795e-15 15.0 10.000000000000002
      vertex 3.8822856765378075 14.48888739433603 4.999999999999999
      vertex 5.639932965095795e-15 15.000000000000007 4.999999999999999
   endloop
endfacet
facet normal -5.079332640518736e-16 1.0 2.217783327010217e-16
   outer loop
      vertex 3.8822856765378075 14.48888739433603 4.999999999999999
      vertex 5.639932965095795e-15 15.0 10.000000000000002
      vertex 3.8822856765378075 14.488887394336025 10.000000000000002
   endloop
endfacet
facet normal -0.4999999999999998 -0.8660254037844388 -1.920656701280419e-16
   outer loop
      vertex -7.499999999999992 -12.990381056766582 9.999999999999996
      vertex -10.606601717798206 -10.606601717798211 4.999999999999994
      vertex -7.499999999999992 -12.990381056766578 4.999999999999994
   endloop
endfacet
facet normal -0.4999999999999998 -0.8660254037844388 -1.920656701280419e-16
   outer loop
      vertex -10.606601717798206 -10.606601717798211 4.999999999999994
      vertex -7.499999999999992 -12.990381056766582 9.999999999999996
      vertex -10.606601717798206 -10.606601717798211 9.999999999999996
   endloop
endfacet
facet normal -0.9659258262890682 -0.2588190451025208 -5.740045629410754e-17
   outer loop
      vertex -14.488887394336018 -3.8822856765378133 9.999999999999996
      vertex -12.990381056766573 -7.5000000000000036 4.999999999999994
      vertex -12.990381056766573 -7.5000000000000036 9.999999999999996
   endloop
endfacet
facet normal -0.9659258262890682 -0.2588190451025208 -5.740045629410754e-17
   outer loop
      vertex -12.990381056766573 -7.5000000000000036 4.999999999999994
      vertex -14.488887394336018 -3.8822856765378133 9.999999999999996
      vertex -14.488887394336018 -3.8822856765378133 4.9999999999999964
   endloop
endfacet
facet normal -0.2588190451025206 -0.9659258262890683 -2.1422141926724623e-16
   outer loop
      vertex -3.882285676537802 -14.488887394336025 9.999999999999996
      vertex -7.499999999999992 -12.990381056766578 4.999999999999994
      vertex -3.882285676537802 -14.488887394336022 4.999999999999994
   endloop
endfacet
facet normal -0.2588190451025206 -0.9659258262890683 -2.1422141926724623e-16
   outer loop
      vertex -7.499999999999992 -12.990381056766578 4.999999999999994
      vertex -3.882285676537802 -14.488887394336025 9.999999999999996
      vertex -7.499999999999992 -12.990381056766582 9.999999999999996
   endloop
endfacet
facet normal 0.2588190451025209 -0.9659258262890682 -2.142214192672462e-16
   outer loop
      vertex 3.882285676537819 -14.488887394336025 9.999999999999996
      vertex 5.639932965095795e-15 -14.999999999999998 4.999999999999994
      vertex 3.882285676537819 -14.488887394336022 4.999999999999994
   endloop
endfacet
facet normal 0.2588190451025209 -0.9659258262890682 -2.142214192672462e-16
   outer loop
      vertex 5.639932965095795e-15 -14.999999999999998 4.999999999999994
      vertex 3.882285676537819 -14.488887394336025 9.999999999999996
      vertex 5.639932965095795e-15 -15.0 9.999999999999996
   endloop
endfacet
facet normal 0.7071067811865475 -0.7071067811865476 -1.5682096297313868e-16
   outer loop
      vertex 10.606601717798217 -10.606601717798211 9.999999999999996
      vertex 7.500000000000009 -12.990381056766577 4.999999999999994
      vertex 10.606601717798217 -10.606601717798211 4.999999999999994
   endloop
endfacet
facet normal 0.7071067811865475 -0.7071067811865476 -1.5682096297313868e-16
   outer loop
      vertex 7.500000000000009 -12.990381056766577 4.999999999999994
      vertex 10.606601717798217 -10.606601717798211 9.999999999999996
      vertex 7.500000000000009 -12.990381056766578 9.999999999999996
   endloop
endfacet
facet normal 0.9659258262890682 -0.25881904510252063 -5.740045629410759e-17
   outer loop
      vertex 14.48888739433603 -3.8822856765378075 4.9999999999999964
      vertex 12.990381056766587 -7.499999999999997 9.999999999999996
      vertex 12.990381056766587 -7.499999999999997 4.999999999999994
   endloop
endfacet
facet normal 0.9659258262890682 -0.25881904510252063 -5.740045629410759e-17
   outer loop
      vertex 12.990381056766587 -7.499999999999997 9.999999999999996
      vertex 14.48888739433603 -3.8822856765378075 4.9999999999999964
      vertex 14.48888739433603 -3.8822856765378075 9.999999999999996
   endloop
endfacet
facet normal 1.0 1.514888682259974e-16 0.0
   outer loop
      vertex 15.000000000000007 0.0 4.9999999999999964
      vertex 14.48888739433603 -3.8822856765378075 9.999999999999996
      vertex 14.48888739433603 -3.8822856765378075 4.9999999999999964
   endloop
endfacet
facet normal 1.0 1.514888682259974e-16 0.0
   outer loop
      vertex 14.48888739433603 -3.8822856765378075 9.999999999999996
      vertex 15.000000000000007 0.0 4.9999999999999964
      vertex 15.000000000000007 0.0 9.999999999999996
   endloop
endfacet
facet normal -0.5000000000000006 0.8660254037844383 1.920656701280418e-16
   outer loop
      vertex -7.5000000000000036 12.990381056766577 10.000000000000002
      vertex -3.882285676537819 14.488887394336025 4.999999999999999
      vertex -7.5000000000000036 12.990381056766582 4.999999999999999
   endloop
endfacet
facet normal -0.5000000000000006 0.8660254037844383 1.920656701280418e-16
   outer loop
      vertex -3.882285676537819 14.488887394336025 4.999999999999999
      vertex -7.5000000000000036 12.990381056766577 10.000000000000002
      vertex -3.882285676537819 14.488887394336025 10.000000000000002
   endloop
endfacet
facet normal -0.8660254037844388 0.49999999999999983 1.108891663505108e-16
   outer loop
      vertex -12.990381056766577 7.499999999999997 10.000000000000002
      vertex -14.488887394336022 3.8822856765378075 4.9999999999999964
      vertex -14.488887394336022 3.8822856765378075 9.999999999999996
   endloop
endfacet
facet normal -0.8660254037844388 0.49999999999999983 1.108891663505108e-16
   outer loop
      vertex -14.488887394336022 3.8822856765378075 4.9999999999999964
      vertex -12.990381056766577 7.499999999999997 10.000000000000002
      vertex -12.990381056766577 7.499999999999997 4.999999999999999
   endloop
endfacet
facet normal -1.0 -0.0 -0.0
   outer loop
      vertex 26.000000000000007 26.000000000000007 1.0000000000000009
      vertex 26.000000000000007 -26.000000000000004 0.0
      vertex 26.000000000000007 -26.000000000000004 1.0000000000000009
   endloop
endfacet
facet normal -1.0 -0.0 -0.0
   outer loop
      vertex 26.000000000000007 -26.000000000000004 0.0
      vertex 26.000000000000007 26.000000000000007 1.0000000000000009
      vertex 26.000000000000007 26.000000000000007 0.0
   endloop
endfacet
facet normal 0.0 -1.0 0.0
   outer loop
      vertex 26.000000000000007 26.000000000000007 1.0000000000000009
      vertex -25.999999999999996 26.000000000000007 0.0
      vertex 26.000000000000007 26.000000000000007 0.0
   endloop
endfacet
facet normal 0.0 -1.0 0.0
   outer loop
      vertex -25.999999999999996 26.000000000000007 0.0
      vertex 26.000000000000007 26.000000000000007 1.0000000000000009
      vertex -25.999999999999996 26.000000000000007 1.0000000000000009
   endloop
endfacet
facet normal 0.0 0.0 -1.0
   outer loop
      vertex -25.999999999999996 26.000000000000007 1.0000000000000009
      vertex 26.000000000000007 -26.000000000000004 1.0000000000000009
      vertex -26.000000000000004 -26.000000000000004 1.0000000000000009
   endloop
endfacet
facet normal 0.0 0.0 -1.0
   outer loop
      vertex 26.000000000000007 -26.000000000000004 1.0000000000000009
      vertex -25.999999999999996 26.000000000000007 1.0000000000000009
      vertex 26.000000000000007 26.000000000000007 1.0000000000000009
   endloop
endfacet
facet normal 0.0 1.0 0.0
   outer loop
      vertex -26.000000000000004 -26.000000000000004 1.0000000000000009
      vertex 26.000000000000007 -26.000000000000004 0.0
      vertex -26.000000000000004 -26.000000000000004 0.0
   endloop
endfacet
facet normal 0.0 1.0 0.0
   outer loop
      vertex 26.000000000000007 -26.000000000000004 0.0
      vertex -26.000000000000004 -26.000000000000004 1.0000000000000009
      vertex 26.000000000000007 -26.000000000000004 1.0000000000000009
   endloop
endfacet
facet normal -0.707106781186548 0.7071067811865471 1.5682096297313858e-16
   outer loop
      vertex -10.606601717798213 10.606601717798206 10.000000000000002
      vertex -12.990381056766577 7.499999999999997 4.999999999999999
      vertex -12.990381056766577 7.499999999999997 10.000000000000002
   endloop
endfacet
facet normal -0.707106781186548 0.7071067811865471 1.5682096297313858e-16
   outer loop
      vertex -12.990381056766577 7.499999999999997 4.999999999999999
      vertex -10.606601717798213 10.606601717798206 10.000000000000002
      vertex -10.606601717798213 10.606601717798211 4.999999999999999
   endloop
endfacet
facet normal -0.707106781186548 0.7071067811865471 1.5682096297313858e-16
   outer loop
      vertex -10.606601717798213 10.606601717798206 10.000000000000002
      vertex -7.5000000000000036 12.990381056766582 4.999999999999999
      vertex -10.606601717798213 10.606601717798211 4.999999999999999
   endloop
endfacet
facet normal -0.707106781186548 0.7071067811865471 1.5682096297313858e-16
   outer loop
      vertex -7.5000000000000036 12.990381056766582 4.999999999999999
      vertex -10.606601717798213 10.606601717798206 10.000000000000002
      vertex -7.5000000000000036 12.990381056766577 10.000000000000002
   endloop
endfacet
facet normal -0.2588190451025213 0.9659258262890682 2.1422141926724618e-16
   outer loop
      vertex -3.882285676537819 14.488887394336025 10.000000000000002
      vertex 5.639932965095795e-15 15.000000000000007 4.999999999999999
      vertex -3.882285676537819 14.488887394336025 4.999999999999999
   endloop
endfacet
facet normal -0.2588190451025213 0.9659258262890682 2.1422141926724618e-16
   outer loop
      vertex 5.639932965095795e-15 15.000000000000007 4.999999999999999
      vertex -3.882285676537819 14.488887394336025 10.000000000000002
      vertex 5.639932965095795e-15 15.0 10.000000000000002
   endloop
endfacet
facet normal 1.0 -1.0846024932876528e-16 0.0
   outer loop
      vertex -25.999999999999996 26.000000000000007 0.0
      vertex -26.000000000000004 -26.000000000000004 1.0000000000000009
      vertex -26.000000000000004 -26.000000000000004 0.0
   endloop
endfacet
facet normal 1.0 -1.0846024932876528e-16 0.0
   outer loop
      vertex -26.000000000000004 -26.000000000000004 1.0000000000000009
      vertex -25.999999999999996 26.000000000000007 0.0
      vertex -25.999999999999996 26.000000000000007 1.0000000000000009
   endloop
endfacet
endsolid a
